<?xml version="1.0" encoding="UTF-8" standalone="no"?>
<!-- Created with Inkscape (http://www.inkscape.org/) -->

<svg
   width="1024"
   height="1024"
   viewBox="0 0 1024 1024"
   version="1.1"
   id="svg5"
   inkscape:version="1.2.2 (732a01da63, 2022-12-09)"
   sodipodi:docname="icon.svg"
   xmlns:inkscape="http://www.inkscape.org/namespaces/inkscape"
   xmlns:sodipodi="http://sodipodi.sourceforge.net/DTD/sodipodi-0.dtd"
   xmlns="http://www.w3.org/2000/svg"
   xmlns:svg="http://www.w3.org/2000/svg">
  <sodipodi:namedview
     id="namedview7"
     pagecolor="#505050"
     bordercolor="#ffffff"
     borderopacity="1"
     inkscape:showpageshadow="0"
     inkscape:pageopacity="0"
     inkscape:pagecheckerboard="1"
     inkscape:deskcolor="#505050"
     inkscape:document-units="px"
     showgrid="true"
     inkscape:zoom="1.4142136"
     inkscape:cx="459.26585"
     inkscape:cy="180.66578"
     inkscape:window-width="1920"
     inkscape:window-height="1009"
     inkscape:window-x="-8"
     inkscape:window-y="-8"
     inkscape:window-maximized="1"
     inkscape:current-layer="layer1">
    <inkscape:grid
       type="xygrid"
       id="grid132"
       empspacing="4"
       originx="0"
       originy="0" />
  </sodipodi:namedview>
  <defs
     id="defs2">
    <filter
       inkscape:collect="always"
       style="color-interpolation-filters:sRGB"
       id="filter924"
       x="-0.11532"
       y="-0.11532"
       width="1.23064"
       height="1.23064">
      <feGaussianBlur
         inkscape:collect="always"
         stdDeviation="1.2493"
         id="feGaussianBlur926" />
    </filter>
    <clipPath
       clipPathUnits="userSpaceOnUse"
       id="clipPath2997">
      <g
         id="g3001">
        <rect
           style="fill:#ffffff;fill-opacity:1;stroke-width:2;stroke-linecap:round;stroke-linejoin:round;stop-color:#000000"
           id="rect2999"
           width="26"
           height="26"
           x="3"
           y="3"
           rx="4"
           ry="4" />
      </g>
    </clipPath>
    <clipPath
       clipPathUnits="userSpaceOnUse"
       id="clipPath3003">
      <g
         id="g3007">
        <rect
           style="fill:#ffffff;fill-opacity:1;stroke-width:2;stroke-linecap:round;stroke-linejoin:round;stop-color:#000000"
           id="rect3005"
           width="26"
           height="26"
           x="3"
           y="3"
           rx="4"
           ry="4" />
      </g>
    </clipPath>
    <clipPath
       clipPathUnits="userSpaceOnUse"
       id="clipPath3009">
      <g
         id="g3013">
        <rect
           style="fill:#ffffff;fill-opacity:1;stroke-width:2;stroke-linecap:round;stroke-linejoin:round;stop-color:#000000"
           id="rect3011"
           width="26"
           height="26"
           x="3"
           y="3"
           rx="4"
           ry="4" />
      </g>
    </clipPath>
    <clipPath
       clipPathUnits="userSpaceOnUse"
       id="clipPath3015">
      <g
         id="g3019">
        <rect
           style="fill:#ffffff;fill-opacity:1;stroke-width:2;stroke-linecap:round;stroke-linejoin:round;stop-color:#000000"
           id="rect3017"
           width="26"
           height="26"
           x="3"
           y="3"
           rx="4"
           ry="4" />
      </g>
    </clipPath>
    <clipPath
       clipPathUnits="userSpaceOnUse"
       id="clipPath3021">
      <g
         id="g3025">
        <rect
           style="fill:#ffffff;fill-opacity:1;stroke-width:2;stroke-linecap:round;stroke-linejoin:round;stop-color:#000000"
           id="rect3023"
           width="26"
           height="26"
           x="3"
           y="3"
           rx="4"
           ry="4" />
      </g>
    </clipPath>
    <clipPath
       clipPathUnits="userSpaceOnUse"
       id="clipPath3027">
      <g
         id="g3031">
        <rect
           style="fill:#ffffff;fill-opacity:1;stroke-width:2;stroke-linecap:round;stroke-linejoin:round;stop-color:#000000"
           id="rect3029"
           width="26"
           height="26"
           x="3"
           y="3"
           rx="4"
           ry="4" />
      </g>
    </clipPath>
  </defs>
  <g
     inkscape:label="Layer 1"
     inkscape:groupmode="layer"
     id="layer1">
    <rect
       style="opacity:0.3;mix-blend-mode:darken;fill:#000000;fill-opacity:1;stroke-width:2;stroke-linecap:round;stroke-linejoin:round;filter:url(#filter924);stop-color:#000000"
       id="rect346-2"
       width="26"
       height="26"
       x="2.9983199"
       y="2.9983199"
       rx="4"
       ry="4"
       transform="matrix(32.003359,0,0,32.003359,1.8479442e-6,1.8479442e-6)" />
    <rect
       style="fill:#ffffff;fill-opacity:1;stroke-width:64.0067;stroke-linecap:round;stroke-linejoin:round;stop-color:#000000"
       id="rect346"
       width="832.08734"
       height="832.08734"
       x="95.956306"
       y="95.956306"
       rx="128.01344"
       ry="128.01344" />
    <circle
       style="opacity:0.3;mix-blend-mode:darken;fill:#0000ff;fill-opacity:1;stroke-width:2;stroke-linecap:round;stroke-linejoin:round;stop-color:#000000"
       id="path2432"
       cx="16"
       cy="29"
       r="8"
       clip-path="url(#clipPath3027)"
       transform="matrix(32.003359,0,0,32.003359,-0.05376636,-0.05376636)" />
    <path
       style="opacity:0.5;fill:none;fill-opacity:1;stroke:#000000;stroke-width:1;stroke-linecap:round;stroke-linejoin:round;stroke-dasharray:none;stop-color:#000000"
       id="path2551"
       sodipodi:type="arc"
       sodipodi:cx="16"
       sodipodi:cy="16"
       sodipodi:rx="2"
       sodipodi:ry="2"
       sodipodi:start="0.26179939"
       sodipodi:end="2.8797933"
       sodipodi:arc-type="arc"
       d="M 17.931852,16.517638 A 2,2 0 0 1 16,18 2,2 0 0 1 14.068148,16.517638"
       sodipodi:open="true"
       clip-path="url(#clipPath3021)"
       transform="matrix(32.003359,0,0,32.003359,-0.05376636,-0.05376636)" />
    <circle
       style="opacity:0.5;fill:#000000;fill-opacity:1;stroke:none;stroke-width:0;stroke-linecap:round;stroke-linejoin:round;stroke-dasharray:none;stop-color:#000000"
       id="path2553"
       cx="14"
       cy="14"
       r="1"
       clip-path="url(#clipPath3015)"
       transform="matrix(32.003359,0,0,32.003359,-0.05376636,-0.05376636)" />
    <circle
       style="opacity:0.5;fill:#000000;fill-opacity:1;stroke:none;stroke-width:0;stroke-linecap:round;stroke-linejoin:round;stroke-dasharray:none;stop-color:#000000"
       id="path2555"
       cx="18"
       cy="14"
       r="1"
       clip-path="url(#clipPath3009)"
       transform="matrix(32.003359,0,0,32.003359,-0.05376636,-0.05376636)" />
    <path
       id="path2557"
       style="opacity:0.3;fill:#0000ff;fill-opacity:1;stroke:#0000ff;stroke-width:1;stroke-linecap:round;stroke-linejoin:round;stroke-dasharray:none;stop-color:#000000"
       d="m 11,8 0.845703,4.226562 A 5,5 0 0 1 12.136719,11.839844 5,5 0 0 0 11.845703,12.226562 5,5 0 0 0 11,15 a 5,5 0 0 0 5,5 5,5 0 0 0 5,-5 5,5 0 0 0 -0.84375,-2.78125 L 21,8 17.855469,10.359375 A 5,5 0 0 0 16,10 5,5 0 0 0 14.154297,10.365234 Z m 2.072266,2.960938 a 5,5 0 0 0 -0.103516,0.07812 5,5 0 0 1 0.103516,-0.07812 z m -0.554688,0.46875 a 5,5 0 0 0 -0.175781,0.175781 5,5 0 0 1 0.175781,-0.175781 z m 7.365234,0.421874 a 5,5 0 0 1 0.05664,0.07227 5,5 0 0 0 -0.05664,-0.07227 z"
       clip-path="url(#clipPath3003)"
       transform="matrix(32.003359,0,0,32.003359,-0.05376636,-0.05376636)" />
    <path
       style="opacity:0.3;fill:none;fill-opacity:1;stroke:#0000ff;stroke-width:2;stroke-linecap:round;stroke-linejoin:round;stroke-dasharray:none;stop-color:#000000"
       d="m 24.350989,30.405592 c 1.811962,-0.883884 3.504022,-3.945805 2.077127,-5.833631 -1.646152,-2.177911 -4.33103,-5.966213 -1.988739,-8.087534"
       id="path2755"
       sodipodi:nodetypes="csc"
       clip-path="url(#clipPath2997)"
       transform="matrix(32.003359,0,0,32.003359,-0.05376636,-0.05376636)" />
  </g>
</svg>
