<?xml version="1.0" encoding="UTF-8" standalone="no"?>
<!-- Created with Inkscape (http://www.inkscape.org/) -->

<svg
   width="24"
   height="24"
   viewBox="0 0 24 24"
   version="1.1"
   id="svg5"
   inkscape:version="1.2.2 (732a01da63, 2022-12-09)"
   sodipodi:docname="add.svg"
   inkscape:export-filename="add.png"
   inkscape:export-xdpi="96"
   inkscape:export-ydpi="96"
   xmlns:inkscape="http://www.inkscape.org/namespaces/inkscape"
   xmlns:sodipodi="http://sodipodi.sourceforge.net/DTD/sodipodi-0.dtd"
   xmlns="http://www.w3.org/2000/svg"
   xmlns:svg="http://www.w3.org/2000/svg">
  <sodipodi:namedview
     id="namedview7"
     pagecolor="#505050"
     bordercolor="#ffffff"
     borderopacity="1"
     inkscape:showpageshadow="0"
     inkscape:pageopacity="0"
     inkscape:pagecheckerboard="1"
     inkscape:deskcolor="#505050"
     inkscape:document-units="px"
     showgrid="false"
     inkscape:zoom="1"
     inkscape:cx="-129.5"
     inkscape:cy="-132.5"
     inkscape:window-width="1920"
     inkscape:window-height="1009"
     inkscape:window-x="-8"
     inkscape:window-y="-8"
     inkscape:window-maximized="1"
     inkscape:current-layer="layer1">
    <inkscape:grid
       type="xygrid"
       id="grid132"
       spacingx="2"
       spacingy="2"
       empspacing="4" />
  </sodipodi:namedview>
  <defs
     id="defs2" />
  <g
     inkscape:label="Layer 1"
     inkscape:groupmode="layer"
     id="layer1">
    <path
       id="path5745"
       style="fill:#ffffff;stroke:none;stroke-width:5.57143;stroke-linejoin:miter;stroke-dasharray:none;stop-color:#000000"
       d="M 7.625 4.5644531 A 5.5714283 5.5714283 0 0 0 2.7851562 10.072266 A 5.5714283 5.5714283 0 0 0 8.3574219 15.642578 A 5.5714283 5.5714283 0 0 0 13.015625 13.09375 L 13.015625 10.984375 L 7.625 10.984375 L 7.625 4.5644531 z M 8.3574219 15.642578 A 8.3571426 8.3571426 0 0 0 0 24 L 16.714844 24 A 8.3571426 8.3571426 0 0 0 8.3574219 15.642578 z " />
    <path
       id="path5804"
       style="color:#000000;fill:#ffffff;stroke-width:1.19792;-inkscape-stroke:none"
       d="M 15.015625,0 V 5.390625 H 9.625 v 3.59375 h 5.390625 V 14.375 h 3.59375 V 8.984375 H 24 V 5.390625 H 18.609375 V 0 Z" />
  </g>
</svg>
